<svg width="1920" height="7703" viewBox="0 0 1920 7703" fill="none" xmlns="http://www.w3.org/2000/svg">
<g clip-path="url(#clip0_878_2)">
<rect width="1920" height="7702" transform="translate(0 0.25)" fill="white" fill-opacity="0.15"/>
<mask id="mask0_878_2" style="mask-type:luminance" maskUnits="userSpaceOnUse" x="-1" y="0" width="1921" height="7703">
<path d="M1919.75 0.75H-0.25V7702.25H1919.75V0.75Z" fill="white"/>
</mask>
<g mask="url(#mask0_878_2)">
<path d="M1920 134.582H0V7702.25H1920V134.582Z" fill="#040E18"/>
<path d="M18.75 2448.01C484.758 2437.33 866.598 2005.26 1217.67 1624.26C1530.26 1285.02 1745.25 852.615 1919.91 384.761C2095.5 -85.6115 2233.7 -571.03 2230.76 -1089.55C2227.51 -1662.26 2247.61 -2343.42 1902.3 -2722.69C1554.42 -3104.79 989.272 -2755.33 548.64 -2937.11C82.5531 -3129.4 -230.164 -3894.72 -715.649 -3802.73C-1189.9 -3712.87 -1455.76 -3047.72 -1673.01 -2516.15C-1859.48 -2059.9 -1721.54 -1514.5 -1849.61 -1028.14C-2017.81 -389.348 -2686.85 109.919 -2534.29 754.751C-2388.4 1371.39 -1665.2 1377.26 -1208.93 1679.87C-796.368 1953.49 -448.803 2458.72 18.75 2448.01Z" fill="#030910"/>
<path d="M2278.63 8226.35C2727.25 8299.63 3200.11 8243.22 3591.25 7960.52C3990.55 7671.93 4371.85 7220.98 4451.93 6655.61C4529.85 6105.5 4079.41 5663.99 3994.22 5115.55C3915.25 4607.15 4155.71 4061.17 3976.36 3593.82C3778.62 3078.56 3417.11 2629.6 2977.19 2465.37C2536.54 2300.86 2038.11 2433.76 1640.67 2721.86C1279.55 2983.63 1170.13 3542.49 918.666 3957.55C689.043 4336.57 267.668 4583.75 226.88 5055.48C186.132 5526.74 553.856 5880 715.314 6309.41C874.928 6733.91 902.12 7235.99 1170.5 7565.07C1468.21 7930.13 1863.98 8158.61 2278.63 8226.35Z" fill="#051320"/>
</g>
</g>
<defs>
<clipPath id="clip0_878_2">
<rect width="1920" height="7702" fill="white" transform="translate(0 0.25)"/>
</clipPath>
</defs>
</svg>
