<?xml version="1.0" encoding="utf-8"?>
<!-- Generator: Adobe Illustrator 27.8.1, SVG Export Plug-In . SVG Version: 6.00 Build 0)  -->
<svg version="1.1" xmlns="http://www.w3.org/2000/svg" xmlns:xlink="http://www.w3.org/1999/xlink" x="0px" y="0px"
	 viewBox="0 0 500 128.67" style="enable-background:new 0 0 500 128.67;" xml:space="preserve">
<style type="text/css">
	.st0{fill:#FFFFFF;}
	.st1{fill:url(#SVGID_1_);}
	.st2{fill:url(#SVGID_00000019672865364612009720000005485812286416476820_);}
	.st3{fill:url(#SVGID_00000127742241819802781590000012670665232748338596_);}
	.st4{fill:url(#SVGID_00000162333425026335365170000008160711459799772062_);}
	.st5{fill:url(#SVGID_00000108992258956185631170000017761598113781570227_);}
	.st6{fill:url(#SVGID_00000038415219953741773690000005030866414019140246_);}
	.st7{fill:url(#SVGID_00000049923842824781361940000008371266866945588621_);}
	.st8{fill:url(#SVGID_00000136389446437003891740000011149850270032121219_);}
	.st9{fill:url(#SVGID_00000165231138380742014040000000648868213554550447_);}
	.st10{fill:url(#SVGID_00000111156572236869791530000017261306084158866572_);}
	.st11{fill:url(#SVGID_00000133509227530513249910000008602206178887278464_);}
	.st12{fill:url(#SVGID_00000097469730009152031240000006963949736470474672_);}
	.st13{fill:url(#SVGID_00000020392814765840496170000010470347676678677410_);}
	.st14{fill:url(#SVGID_00000006696260819858289590000000937932893663702927_);}
	.st15{fill:url(#SVGID_00000160151095597310825390000010259804099512457404_);}
	.st16{fill:url(#SVGID_00000089576258074917090030000007260710476598450354_);}
	.st17{fill:url(#SVGID_00000075142788764883868560000009567782973873271719_);}
	.st18{fill:url(#SVGID_00000005242150448390472120000002843727738249435799_);}
	.st19{fill:url(#SVGID_00000067196646276632862440000014168007709781588614_);}
	.st20{fill:url(#SVGID_00000050647416648904263980000002015316297429607557_);}
	.st21{fill:url(#SVGID_00000000920491321772197790000001886466186407891893_);}
	.st22{fill:url(#SVGID_00000099656029493540516970000008286348885502127275_);}
	.st23{fill:url(#SVGID_00000062188557597022871910000015214964512892189314_);}
	.st24{fill:url(#SVGID_00000143595605158594644790000001175752369044582797_);}
	.st25{fill:url(#SVGID_00000119801957987167443690000003314607287071476394_);}
	.st26{fill:url(#SVGID_00000044144888721117466690000016245112223257869962_);}
	.st27{fill:url(#SVGID_00000181792469835668166860000014260664792130457507_);}
	.st28{fill:url(#SVGID_00000005241355729838428590000012465310401050108856_);}
	.st29{fill:url(#SVGID_00000038388750883563962670000000101536156068030618_);}
	.st30{fill:url(#SVGID_00000033368519958428717940000012304805730632138165_);}
	.st31{fill:url(#SVGID_00000131356561274908548640000004198141208914692511_);}
	.st32{fill:url(#SVGID_00000069376052615043956060000013342588465948923021_);}
</style>
<g id="_x37_">
</g>
<g id="_x36_">
</g>
<g id="_x35_">
</g>
<g id="_x34_">
</g>
<g id="_x33_">
</g>
<g id="_x32_">
</g>
<g id="_x31_">
	<g>
		<g>
			<linearGradient id="SVGID_1_" gradientUnits="userSpaceOnUse" x1="121.3567" y1="226.8794" x2="171.3993" y2="-43.7589">
				<stop  offset="0.2955" style="stop-color:#19C4F9"/>
				<stop  offset="1" style="stop-color:#007BE3"/>
			</linearGradient>
			<path class="st1" d="M175.18,56.27c-0.51,0.37-1.07,0.7-1.7,0.98c0.61,0.26,1.19,0.56,1.72,0.93c1.23,0.86,2.28,2.16,3.12,3.84
				c0.84,1.61,1.26,3.79,1.26,6.47V86.2c0,1.49,0.07,9.43,0.14,10.08c0.07,0.58,0.3,1.14,0.65,1.7c0.3,0.44,0.86,0.86,1.61,1.21
				c0.72,0.33,1.84,0.49,3.33,0.49h10.82v15.13h-16.87c-4.26,0-7.91-1.37-10.87-4.07c-2.98-2.77-4.49-7.19-4.49-13.1V71.01
				c0-1.33-0.35-2.33-1.09-3.05c-0.81-0.81-1.82-1.47-2.98-1.96c-1.07-0.47-2.16-0.74-3.26-0.88h-29
				c-5.61-9.31-15.83-15.55-27.46-15.55h56.46c1.12-0.16,2.21-0.42,3.26-0.84c1.16-0.44,2.14-1.09,2.96-1.98
				c0.74-0.81,1.12-1.84,1.12-3.17V17.11c0-6.12,1.49-10.57,4.42-13.2C171.27,1.3,174.94,0,179.25,0h16.87v15.03H185.3
				c-1.47,0-2.58,0.19-3.3,0.56c-0.77,0.35-1.33,0.79-1.65,1.26c-0.35,0.51-0.54,1.07-0.63,1.72v0.12c-0.09,0.79-0.14,1.4-0.14,1.93
				v25.34c0,2.77-0.4,4.91-1.26,6.56C177.48,54.2,176.43,55.46,175.18,56.27z"/>
			<g>
				
					<linearGradient id="SVGID_00000041266274280531354900000008578678931426614423_" gradientUnits="userSpaceOnUse" x1="178.3784" y1="237.423" x2="228.4209" y2="-33.2153">
					<stop  offset="0.2955" style="stop-color:#19C4F9"/>
					<stop  offset="1" style="stop-color:#007BE3"/>
				</linearGradient>
				<path style="fill:url(#SVGID_00000041266274280531354900000008578678931426614423_);" d="M211.68,72.96
					c0-8.63-6.99-15.62-15.62-15.62c8.63,0,15.62-7,15.62-15.63c0,8.63,7.01,15.63,15.62,15.63
					C218.68,57.34,211.68,64.33,211.68,72.96z"/>
			</g>
			
				<linearGradient id="SVGID_00000099658968093342524370000001997585069856774806_" gradientUnits="userSpaceOnUse" x1="39.5713" y1="211.7568" x2="89.6138" y2="-58.8815">
				<stop  offset="0.2955" style="stop-color:#19C4F9"/>
				<stop  offset="1" style="stop-color:#007BE3"/>
			</linearGradient>
			<path style="fill:url(#SVGID_00000099658968093342524370000001997585069856774806_);" d="M132.17,81.64
				c0,17.66-14.38,32.07-32.07,32.07H56.37C25.3,113.71,0,88.41,0,57.35C0,26.25,25.3,0.98,56.37,0.98h68.03v15.55H56.37
				c-22.51,0-40.82,18.32-40.82,40.82c0,22.51,18.32,40.8,40.82,40.8h43.73c9.12,0,16.52-7.4,16.52-16.5
				c0-9.12-7.4-16.52-16.52-16.52H56.97V49.57h43.13c11.64,0,21.85,6.24,27.46,15.55C130.49,69.96,132.17,75.59,132.17,81.64z"/>
		</g>
		<g>
			<g>
				
					<linearGradient id="SVGID_00000043459184565410237270000000981634809617187219_" gradientUnits="userSpaceOnUse" x1="235.2001" y1="247.9297" x2="285.2426" y2="-22.7086">
					<stop  offset="0.2955" style="stop-color:#19C4F9"/>
					<stop  offset="1" style="stop-color:#007BE3"/>
				</linearGradient>
				<path style="fill:url(#SVGID_00000043459184565410237270000000981634809617187219_);" d="M274.72,9.98h22.55V1.31h-22.55
					c-2.64,0-5.24,0.46-7.72,1.36c-0.68,0.25-1.35,0.54-2.02,0.86c-0.65,0.32-1.29,0.66-1.91,1.04c-0.25,0.15-0.51,0.32-0.92,0.59
					c-0.44,0.3-0.88,0.62-1.31,0.95c-0.43,0.33-0.84,0.69-1.24,1.05c-4.68,4.27-7.37,10.33-7.37,16.63c0,0.59,0.02,1.16,0.07,1.71
					c0.39,5.18,2.59,10.1,6.19,13.84c0.35,0.38,0.72,0.74,1.1,1.09c0.4,0.36,0.81,0.71,1.23,1.05c0.42,0.33,0.87,0.64,1.3,0.95
					c0.3,0.21,0.61,0.4,0.93,0.6c0.62,0.37,1.26,0.72,1.9,1.03c0.66,0.32,1.32,0.59,2.02,0.85c2.48,0.91,5.08,1.36,7.72,1.36h22.55
					V19.45h-23.94v8.67h15.27v9.47h-13.87c-7.16,0-13.07-5.37-13.74-12.5c-0.04-0.43-0.07-0.87-0.07-1.31
					C260.92,16.17,267.11,9.98,274.72,9.98z"/>
				
					<linearGradient id="SVGID_00000060712448870958438470000008480208736310588568_" gradientUnits="userSpaceOnUse" x1="275.6563" y1="255.4103" x2="325.6988" y2="-15.228">
					<stop  offset="0.2955" style="stop-color:#19C4F9"/>
					<stop  offset="1" style="stop-color:#007BE3"/>
				</linearGradient>
				<path style="fill:url(#SVGID_00000060712448870958438470000008480208736310588568_);" d="M311.77,32.43
					c0.28,3.86,4.1,5.7,8.44,5.7c3.15,0,5.73-0.42,8.24-1.27l1.26,6.3c-3.1,1.26-6.84,1.89-10.85,1.89
					c-10.15,0-15.97-5.91-15.97-15.24c0-7.61,4.74-16.03,15.1-16.03c9.71,0,13.37,7.55,13.37,14.96c0,1.62-0.17,3-0.33,3.69H311.77z
					 M322.7,26.05c0.02-2.24-0.98-6.07-5.22-6.07c-3.93,0-5.53,3.59-5.79,6.07H322.7z"/>
				
					<linearGradient id="SVGID_00000075874325466467382250000015115820162612868770_" gradientUnits="userSpaceOnUse" x1="308.0971" y1="261.4088" x2="358.1396" y2="-9.2295">
					<stop  offset="0.2955" style="stop-color:#19C4F9"/>
					<stop  offset="1" style="stop-color:#007BE3"/>
				</linearGradient>
				<path style="fill:url(#SVGID_00000075874325466467382250000015115820162612868770_);" d="M336.9,24.03
					c0-3.73-0.12-6.88-0.25-9.57h8.08l0.43,4.15h0.2c1.21-1.93,4.25-4.82,9.26-4.82c6.12,0,10.72,4.08,10.72,12.9v17.73H356v-16.6
					c0-3.86-1.38-6.5-4.74-6.5c-2.56,0-4.08,1.79-4.72,3.52c-0.24,0.58-0.33,1.47-0.33,2.3v17.28h-9.32V24.03z"/>
				
					<linearGradient id="SVGID_00000027588136660255716660000015611635106929207983_" gradientUnits="userSpaceOnUse" x1="333.6451" y1="266.1327" x2="383.6876" y2="-4.5056">
					<stop  offset="0.2955" style="stop-color:#19C4F9"/>
					<stop  offset="1" style="stop-color:#007BE3"/>
				</linearGradient>
				<path style="fill:url(#SVGID_00000027588136660255716660000015611635106929207983_);" d="M372.74,14.46v29.95h9.34V14.46H372.74
					z"/>
				
					<linearGradient id="SVGID_00000101787836828350547120000016216031887183452552_" gradientUnits="userSpaceOnUse" x1="352.2016" y1="269.5639" x2="402.2441" y2="-1.0744">
					<stop  offset="0.2955" style="stop-color:#19C4F9"/>
					<stop  offset="1" style="stop-color:#007BE3"/>
				</linearGradient>
				<path style="fill:url(#SVGID_00000101787836828350547120000016216031887183452552_);" d="M399.9,5.92v8.54h6.7v6.87h-6.7v10.85
					c0,3.61,0.9,5.28,3.67,5.28c1.2,0,2.13-0.13,2.77-0.28l0.07,7.07c-1.2,0.43-3.43,0.8-6.03,0.8c-3.01,0-5.52-1.05-7.02-2.6
					c-1.73-1.78-2.57-4.62-2.57-8.88V21.33h-3.98v-6.87h3.98V8.03L399.9,5.92z"/>
				
					<linearGradient id="SVGID_00000147942525004436135290000003450780516741613964_" gradientUnits="userSpaceOnUse" x1="379.1918" y1="274.5546" x2="429.2344" y2="3.9163">
					<stop  offset="0.2955" style="stop-color:#19C4F9"/>
					<stop  offset="1" style="stop-color:#007BE3"/>
				</linearGradient>
				<path style="fill:url(#SVGID_00000147942525004436135290000003450780516741613964_);" d="M418.84,32.43
					c0.28,3.86,4.1,5.7,8.44,5.7c3.15,0,5.73-0.42,8.24-1.27l1.26,6.3c-3.1,1.26-6.84,1.89-10.85,1.89
					c-10.15,0-15.97-5.91-15.97-15.24c0-7.61,4.74-16.03,15.1-16.03c9.71,0,13.37,7.55,13.37,14.96c0,1.62-0.17,3-0.33,3.69H418.84z
					 M429.77,26.05c0.02-2.24-0.98-6.07-5.22-6.07c-3.93,0-5.53,3.59-5.79,6.07H429.77z"/>
				
					<linearGradient id="SVGID_00000170274517240153070980000010829380545112446084_" gradientUnits="userSpaceOnUse" x1="409.1931" y1="280.102" x2="459.2356" y2="9.4637">
					<stop  offset="0.2955" style="stop-color:#19C4F9"/>
					<stop  offset="1" style="stop-color:#007BE3"/>
				</linearGradient>
				<path style="fill:url(#SVGID_00000170274517240153070980000010829380545112446084_);" d="M466.45,43.66
					c-1.68,0.77-4.8,1.39-8.34,1.39c-9.68,0-15.84-5.92-15.84-15.33c0-8.76,5.99-15.91,17.12-15.91c2.46,0,5.16,0.45,7.11,1.18
					l-1.45,6.92c-1.12-0.5-2.76-0.95-5.21-0.95c-4.92,0-8.08,3.49-8.04,8.39c0,5.5,3.69,8.42,8.2,8.42c2.22,0,3.93-0.39,5.37-0.97
					L466.45,43.66z"/>
				
					<linearGradient id="SVGID_00000034077871995150903830000004412428057279422094_" gradientUnits="userSpaceOnUse" x1="437.2281" y1="285.2858" x2="487.2707" y2="14.6475">
					<stop  offset="0.2955" style="stop-color:#19C4F9"/>
					<stop  offset="1" style="stop-color:#007BE3"/>
				</linearGradient>
				<path style="fill:url(#SVGID_00000034077871995150903830000004412428057279422094_);" d="M471.57,0.97h9.32v17.1h0.12
					c0.97-1.31,2.17-2.31,3.65-3.09c1.38-0.75,3.12-1.19,4.85-1.19c5.94,0,10.49,4.12,10.49,13.15v17.47h-9.33V27.96
					c0-3.94-1.36-6.64-4.81-6.64c-2.48,0-4.01,1.59-4.67,3.29c-0.24,0.56-0.3,1.36-0.3,2.04v17.77h-9.32V0.97z"/>
				
					<linearGradient id="SVGID_00000154386626336949781200000002300368646495315372_" gradientUnits="userSpaceOnUse" x1="329.481" y1="265.3628" x2="379.5236" y2="-5.2755">
					<stop  offset="0.2955" style="stop-color:#19C4F9"/>
					<stop  offset="1" style="stop-color:#007BE3"/>
				</linearGradient>
				<circle style="fill:url(#SVGID_00000154386626336949781200000002300368646495315372_);" cx="377.41" cy="6.15" r="4.65"/>
			</g>
			<g>
				<g>
					<g>
						
							<linearGradient id="SVGID_00000164497291297428885200000017819695367339834001_" gradientUnits="userSpaceOnUse" x1="239.027" y1="248.6373" x2="289.0695" y2="-22.001">
							<stop  offset="0.2955" style="stop-color:#19C4F9"/>
							<stop  offset="1" style="stop-color:#007BE3"/>
						</linearGradient>
						<path style="fill:url(#SVGID_00000164497291297428885200000017819695367339834001_);" d="M275.4,79.16l-5.21,1.39
							c-0.81-0.45-1.24-1.19-1.24-2.17c0-0.62,0.22-1.17,0.65-1.63c0.43-0.48,1-0.69,1.7-0.69c0.72,0,1.36,0.22,1.91,0.69l0.76-3.73
							c-1.43-0.79-2.77-1.19-4.01-1.19c-1.65,0-3.01,0.53-4.04,1.6c-1.05,1.05-1.55,2.29-1.55,3.75c0,1.72,0.69,3.18,2.08,4.35
							l-2.2,0.55l0.6,2.82l11.35-2.22L275.4,79.16z"/>
						
							<linearGradient id="SVGID_00000135690292684957832370000015882904548525129872_" gradientUnits="userSpaceOnUse" x1="254.2271" y1="251.4479" x2="304.2696" y2="-19.1904">
							<stop  offset="0.2955" style="stop-color:#19C4F9"/>
							<stop  offset="1" style="stop-color:#007BE3"/>
						</linearGradient>
						<path style="fill:url(#SVGID_00000135690292684957832370000015882904548525129872_);" d="M314.04,73.28v28.18h-46.77
							c-2.82,0-5.23-0.19-7.27-0.55c-2.03-0.36-3.82-1.31-5.43-2.84c-1.58-1.55-2.37-3.92-2.37-7.17c0-2.2,0.38-4.71,1.12-7.48
							l7.19,0.41l-0.24,2.49c-0.17,1.39-0.26,2.25-0.26,2.61c0,1.17,0.43,2.25,1.27,3.25c0.84,1,2.41,1.51,4.68,1.51h13.62V67.37
							h8.51v26.29h17.42V73.28H314.04z"/>
						
							<linearGradient id="SVGID_00000134224753092084629100000001734899619169351564_" gradientUnits="userSpaceOnUse" x1="381.423" y1="274.9671" x2="431.4655" y2="4.3288">
							<stop  offset="0.2955" style="stop-color:#19C4F9"/>
							<stop  offset="1" style="stop-color:#007BE3"/>
						</linearGradient>
						<path style="fill:url(#SVGID_00000134224753092084629100000001734899619169351564_);" d="M499.81,87.35
							c0,0.38,0,0.74-0.02,1.08c-0.24,3.25-1.63,6.33-3.9,8.68c-0.19,0.22-0.45,0.45-0.69,0.67c-0.19,0.19-0.45,0.41-0.74,0.65
							c-0.31,0.24-0.6,0.43-0.91,0.65c-0.12,0.1-0.33,0.24-0.55,0.36c-0.33,0.22-0.72,0.41-1.1,0.62c-0.45,0.19-0.76,0.33-1.12,0.48
							c-1.79,0.65-3.39,0.93-5.04,0.93H372.05c-0.19,4.49-1.36,7.65-3.51,9.51c-2.15,1.84-4.99,2.77-8.58,2.77h-14.32
							c-2.2,0-4.52-0.43-6.93-1.27c-2.41-0.84-4.45-2.2-6.14-4.09c-1.67-1.89-2.51-4.3-2.51-7.29c0-1.29,0.14-2.87,0.45-4.76
							c0.31-1.86,0.62-3.37,0.93-4.45l7.86,1.29c-0.12,0.96-0.29,2.17-0.45,3.68c-0.19,1.51-0.29,2.56-0.29,3.15
							c0,1.6,0.6,3.01,1.82,4.18c1.19,1.17,2.87,1.74,5.02,1.74l14.08-0.05c0.96,0,1.67-0.07,2.17-0.22
							c0.5-0.14,0.88-0.55,1.19-1.19c0.29-0.65,0.45-1.65,0.48-3.04c-1.6-0.05-3.04-0.26-4.25-0.65c-1.22-0.41-2.56-1.12-4.01-2.17
							l3.78-6.74c0.72,0.6,1.36,1.03,1.94,1.29c0.55,0.26,1.05,0.41,1.51,0.43c0.45,0.05,1.17,0.05,2.2,0.05h68.11V73.28h8.51v20.39
							h14.86V73.28h8.53v20.39h21.25c3.25,0,5.95-2.46,6.26-5.71c0.02-0.19,0.02-0.38,0.02-0.6c0-3.47-2.82-6.29-6.29-6.29h-14.12
							v-7.79h14.12c0.38,0,0.74,0.02,1.1,0.05c1.41,0.12,2.58,0.38,3.73,0.81c0.48,0.17,0.88,0.33,1.29,0.53
							c0.38,0.19,0.79,0.41,1.17,0.65l0.57,0.36c0.17,0.1,0.33,0.24,0.5,0.36l0.26,0.19c0.33,0.26,0.6,0.48,0.81,0.69
							C498.14,79.63,499.81,83.43,499.81,87.35z"/>
					</g>
				</g>
				
					<linearGradient id="SVGID_00000100384585295692311570000012028957696227986360_" gradientUnits="userSpaceOnUse" x1="448.555" y1="287.3802" x2="498.5975" y2="16.7419">
					<stop  offset="0.2955" style="stop-color:#19C4F9"/>
					<stop  offset="1" style="stop-color:#007BE3"/>
				</linearGradient>
				<path style="fill:url(#SVGID_00000100384585295692311570000012028957696227986360_);" d="M485.4,111.13
					c0,2.34-1.91,4.25-4.25,4.25c-2.37,0-4.25-1.91-4.25-4.25c0-2.34,1.89-4.25,4.25-4.25C483.49,106.88,485.4,108.79,485.4,111.13z
					"/>
				
					<linearGradient id="SVGID_00000119817475123181167940000000751463913903356826_" gradientUnits="userSpaceOnUse" x1="397.1436" y1="277.874" x2="447.1862" y2="7.2357">
					<stop  offset="0.2955" style="stop-color:#19C4F9"/>
					<stop  offset="1" style="stop-color:#007BE3"/>
				</linearGradient>
				<path style="fill:url(#SVGID_00000119817475123181167940000000751463913903356826_);" d="M441.02,63.6
					c0,2.34-1.91,4.25-4.25,4.25c-2.34,0-4.25-1.91-4.25-4.25s1.91-4.25,4.25-4.25C439.11,59.34,441.02,61.26,441.02,63.6z"/>
				
					<linearGradient id="SVGID_00000021830051839580863890000010868092554682283967_" gradientUnits="userSpaceOnUse" x1="331.0163" y1="265.6466" x2="381.0588" y2="-4.9916">
					<stop  offset="0.2955" style="stop-color:#19C4F9"/>
					<stop  offset="1" style="stop-color:#007BE3"/>
				</linearGradient>
				<path style="fill:url(#SVGID_00000021830051839580863890000010868092554682283967_);" d="M361.51,123.75
					c0,2.34-1.89,4.25-4.25,4.25c-2.34,0-4.25-1.91-4.25-4.25c0-2.34,1.91-4.25,4.25-4.25C359.62,119.5,361.51,121.41,361.51,123.75
					z"/>
				
					<linearGradient id="SVGID_00000086684588744288099990000010468396879926439043_" gradientUnits="userSpaceOnUse" x1="320.2246" y1="263.6512" x2="370.2671" y2="-6.9871">
					<stop  offset="0.2955" style="stop-color:#19C4F9"/>
					<stop  offset="1" style="stop-color:#007BE3"/>
				</linearGradient>
				<path style="fill:url(#SVGID_00000086684588744288099990000010468396879926439043_);" d="M350.35,123.75
					c0,2.34-1.89,4.25-4.25,4.25c-2.34,0-4.25-1.91-4.25-4.25c0-2.34,1.91-4.25,4.25-4.25C348.46,119.5,350.35,121.41,350.35,123.75
					z"/>
				
					<linearGradient id="SVGID_00000136408195233514570060000012084490624092921732_" gradientUnits="userSpaceOnUse" x1="429.3293" y1="283.8253" x2="479.3719" y2="13.187">
					<stop  offset="0.2955" style="stop-color:#19C4F9"/>
					<stop  offset="1" style="stop-color:#007BE3"/>
				</linearGradient>
				<path style="fill:url(#SVGID_00000136408195233514570060000012084490624092921732_);" d="M465.51,111.13
					c0,2.34-1.89,4.25-4.25,4.25c-2.34,0-4.25-1.91-4.25-4.25c0-2.34,1.91-4.25,4.25-4.25
					C463.63,106.88,465.51,108.79,465.51,111.13z"/>
				
					<linearGradient id="SVGID_00000158012823140104747460000012989161160836065177_" gradientUnits="userSpaceOnUse" x1="418.5599" y1="281.834" x2="468.6025" y2="11.1957">
					<stop  offset="0.2955" style="stop-color:#19C4F9"/>
					<stop  offset="1" style="stop-color:#007BE3"/>
				</linearGradient>
				<path style="fill:url(#SVGID_00000158012823140104747460000012989161160836065177_);" d="M454.38,111.13
					c0,2.34-1.91,4.25-4.25,4.25c-2.37,0-4.25-1.91-4.25-4.25c0-2.34,1.89-4.25,4.25-4.25
					C452.47,106.88,454.38,108.79,454.38,111.13z"/>
				
					<linearGradient id="SVGID_00000183213026815193977010000002558399817703663792_" gradientUnits="userSpaceOnUse" x1="279.8666" y1="256.1888" x2="329.9091" y2="-14.4495">
					<stop  offset="0.2955" style="stop-color:#19C4F9"/>
					<stop  offset="1" style="stop-color:#007BE3"/>
				</linearGradient>
				<path style="fill:url(#SVGID_00000183213026815193977010000002558399817703663792_);" d="M319.73,63.6
					c0,2.34-1.91,4.25-4.25,4.25c-2.37,0-4.25-1.91-4.25-4.25s1.89-4.25,4.25-4.25C317.82,59.34,319.73,61.26,319.73,63.6z"/>
				
					<linearGradient id="SVGID_00000181082799350531836140000012228972192429617066_" gradientUnits="userSpaceOnUse" x1="269.0753" y1="254.1934" x2="319.1178" y2="-16.4449">
					<stop  offset="0.2955" style="stop-color:#19C4F9"/>
					<stop  offset="1" style="stop-color:#007BE3"/>
				</linearGradient>
				<path style="fill:url(#SVGID_00000181082799350531836140000012228972192429617066_);" d="M308.57,63.6
					c0,2.34-1.91,4.25-4.25,4.25c-2.34,0-4.25-1.91-4.25-4.25s1.91-4.25,4.25-4.25C306.66,59.34,308.57,61.26,308.57,63.6z"/>
			</g>
		</g>
	</g>
</g>
</svg>
